<svg width="16" height="16" viewBox="0 0 16 16" fill="none" xmlns="http://www.w3.org/2000/svg">
<rect x="1.5" y="1.5" width="13" height="13" rx="1.5" fill="#F6F8FD" stroke="#5495FF"/>
<path d="M8.42383 11.6562C7.49414 11.6562 6.77344 11.3711 6.26172 10.8008C5.75391 10.2266 5.5 9.41602 5.5 8.36914C5.5 7.29492 5.75781 6.46484 6.27344 5.87891C6.79297 5.29297 7.53125 5 8.48828 5C8.79688 5 9.10547 5.0332 9.41406 5.09961C9.72266 5.16602 9.96484 5.24414 10.1406 5.33398L9.8418 6.16016C9.62695 6.07422 9.39258 6.00391 9.13867 5.94922C8.88477 5.89062 8.66016 5.86133 8.46484 5.86133C7.16016 5.86133 6.50781 6.69336 6.50781 8.35742C6.50781 9.14648 6.66602 9.75195 6.98242 10.1738C7.30273 10.5957 7.77539 10.8066 8.40039 10.8066C8.93555 10.8066 9.48438 10.6914 10.0469 10.4609V11.3223C9.61719 11.5449 9.07617 11.6562 8.42383 11.6562Z" fill="#5495FF"/>
</svg>
