<svg width="24" height="24" viewBox="0 0 24 24" fill="none" xmlns="http://www.w3.org/2000/svg">
<path d="M4.5 6C4.5 5.17157 5.17157 4.5 6 4.5H18C18.8284 4.5 19.5 5.17157 19.5 6C19.5 6.82843 18.8284 7.5 18 7.5H6C5.17157 7.5 4.5 6.82843 4.5 6Z" stroke="#AFB7BF"/>
<path d="M4.5 12C4.5 11.1716 5.17157 10.5 6 10.5H18C18.8284 10.5 19.5 11.1716 19.5 12C19.5 12.8284 18.8284 13.5 18 13.5H6C5.17157 13.5 4.5 12.8284 4.5 12Z" stroke="#AFB7BF"/>
<path d="M4.5 18C4.5 17.1716 5.17157 16.5 6 16.5H18C18.8284 16.5 19.5 17.1716 19.5 18C19.5 18.8284 18.8284 19.5 18 19.5H6C5.17157 19.5 4.5 18.8284 4.5 18Z" stroke="#AFB7BF"/>
</svg>
