<svg width="19" height="16" viewBox="0 0 19 16" fill="none" xmlns="http://www.w3.org/2000/svg">
<path d="M4.19335 5.73167C4.32303 5.01844 4.94422 4.5 5.66915 4.5H12.3308C13.0558 4.5 13.677 5.01844 13.8067 5.73167L15.0794 12.7317C15.2468 13.6524 14.5394 14.5 13.6036 14.5H4.39643C3.46057 14.5 2.75321 13.6524 2.92062 12.7317L4.19335 5.73167Z" fill="#F6F8FD" stroke="#5495FF"/>
<path d="M2.06632 3.58792C2.2503 2.94397 2.83888 2.5 3.5086 2.5H14.4914C15.1611 2.5 15.7497 2.94397 15.9337 3.58792L16.0245 3.90567C16.4079 5.24765 14.9114 6.34001 13.7501 5.56583L12.7812 4.91987C12.3705 4.64609 11.888 4.5 11.3944 4.5H6.60555C6.11199 4.5 5.62947 4.6461 5.2188 4.91987L4.24986 5.56583C3.08859 6.34001 1.59211 5.24765 1.97553 3.90567L2.06632 3.58792Z" fill="#F6F8FD" stroke="#5495FF"/>
<circle cx="9" cy="9" r="2.5" fill="#F1F2F7" stroke="#5495FF"/>
</svg>
