<svg width="20" height="17" viewBox="0 0 20 17" fill="none" xmlns="http://www.w3.org/2000/svg">
<path d="M2.22697 12.2828L2.68726 12.4781L2.79566 12.2226L2.63614 11.9955L2.22697 12.2828ZM1 15.175L0.539709 14.9797L0.188008 15.8087L1.07762 15.6689L1 15.175ZM4.74111 14.5871L4.99868 14.1586L4.84297 14.065L4.66349 14.0932L4.74111 14.5871ZM18.5 8.5C18.5 12.2845 14.7837 15.5 10 15.5V16.5C15.1575 16.5 19.5 12.9998 19.5 8.5H18.5ZM10 1.5C14.7837 1.5 18.5 4.71549 18.5 8.5H19.5C19.5 4.00024 15.1575 0.5 10 0.5V1.5ZM1.5 8.5C1.5 4.71549 5.21635 1.5 10 1.5V0.5C4.84252 0.5 0.5 4.00024 0.5 8.5H1.5ZM2.63614 11.9955C1.91021 10.9618 1.5 9.76827 1.5 8.5H0.5C0.5 9.99104 0.983849 11.3828 1.8178 12.5702L2.63614 11.9955ZM1.46029 15.3703L2.68726 12.4781L1.76668 12.0876L0.539709 14.9797L1.46029 15.3703ZM4.66349 14.0932L0.922381 14.6811L1.07762 15.6689L4.81873 15.081L4.66349 14.0932ZM10 15.5C8.12518 15.5 6.39819 14.9997 4.99868 14.1586L4.48355 15.0157C6.04262 15.9527 7.94841 16.5 10 16.5V15.5Z" fill="white"/>
</svg>
